<svg width="30" height="30" viewBox="0 0 30 30" fill="none" xmlns="http://www.w3.org/2000/svg">
<circle cx="15" cy="15" r="15" fill="#9B51E0"/>
<path d="M23 10.4286V11C23 11.0758 22.9719 11.1485 22.9219 11.202C22.8719 11.2556 22.8041 11.2857 22.7333 11.2857H21.9333V11.7143C21.9333 11.951 21.7542 12.1429 21.5333 12.1429H8.46667C8.24577 12.1429 8.06667 11.951 8.06667 11.7143V11.2857H7.26667C7.19594 11.2857 7.12811 11.2556 7.0781 11.202C7.0281 11.1485 7 11.0758 7 11V10.4286C7 10.3721 7.01565 10.3168 7.04497 10.2698C7.07428 10.2228 7.11595 10.1862 7.1647 10.1646L14.898 7.02172C14.9633 6.99276 15.0367 6.99276 15.102 7.02172L22.8353 10.1646C22.884 10.1862 22.9257 10.2228 22.955 10.2698C22.9844 10.3168 23 10.3721 23 10.4286V10.4286ZM22.2 21.2857H7.8C7.35817 21.2857 7 21.6695 7 22.1429V22.7143C7 22.7901 7.0281 22.8627 7.0781 22.9163C7.12811 22.9699 7.19594 23 7.26667 23H22.7333C22.8041 23 22.8719 22.9699 22.9219 22.9163C22.9719 22.8627 23 22.7901 23 22.7143V22.1429C23 21.6695 22.6418 21.2857 22.2 21.2857ZM9.66667 12.7143V19.5714H8.46667C8.24577 19.5714 8.06667 19.7633 8.06667 20V20.7143H21.9333V20C21.9333 19.7633 21.7542 19.5714 21.5333 19.5714H20.3333V12.7143H18.2V19.5714H16.0667V12.7143H13.9333V19.5714H11.8V12.7143H9.66667Z" fill="white"/>
</svg>
