<svg width="30" height="30" viewBox="0 0 30 30" fill="none" xmlns="http://www.w3.org/2000/svg">
<circle cx="15" cy="15" r="15" fill="#F2994A"/>
<path d="M14.4964 6.53442C14.5252 6.69966 15.0769 9.85668 15.0769 11.0625C15.0769 12.9012 14.0745 14.2125 12.5925 14.7399L13.0577 23.1106C13.0829 23.5922 12.6899 24 12.1923 24H9.88462C9.39062 24 8.99399 23.5957 9.01923 23.1106L9.48438 14.7399C7.9988 14.2125 7 12.8977 7 11.0625C7 9.85316 7.55168 6.69966 7.58053 6.53442C7.69591 5.82075 9.21394 5.81021 9.30769 6.5731V11.5371C9.35457 11.6567 9.85216 11.6496 9.88462 11.5371C9.9351 10.6477 10.1695 6.64341 10.1731 6.552C10.2921 5.82075 11.7849 5.82075 11.9002 6.552C11.9075 6.64692 12.1382 10.6477 12.1887 11.5371C12.2212 11.6496 12.7224 11.6567 12.7656 11.5371V6.5731C12.8594 5.81372 14.381 5.82075 14.4964 6.53442V6.53442ZM18.7945 16.5785L18.2536 23.0859C18.2103 23.5781 18.6106 24 19.1154 24H21.1346C21.6142 24 22 23.6238 22 23.1563V6.8438C22 6.37974 21.6142 6.00005 21.1346 6.00005C18.1599 6.00005 13.1514 12.2754 18.7945 16.5785Z" fill="white"/>
</svg>
