<svg width="30" height="30" viewBox="0 0 30 30" fill="none" xmlns="http://www.w3.org/2000/svg">
<circle cx="15" cy="15" r="15" fill="#219653"/>
<path d="M7 22.3125C7 23.2441 7.76786 24 8.71429 24H21.2857C22.2321 24 23 23.2441 23 22.3125V12.75H7V22.3125ZM18.4286 15.4219C18.4286 15.1898 18.6214 15 18.8571 15H20.2857C20.5214 15 20.7143 15.1898 20.7143 15.4219V16.8281C20.7143 17.0602 20.5214 17.25 20.2857 17.25H18.8571C18.6214 17.25 18.4286 17.0602 18.4286 16.8281V15.4219ZM18.4286 19.9219C18.4286 19.6898 18.6214 19.5 18.8571 19.5H20.2857C20.5214 19.5 20.7143 19.6898 20.7143 19.9219V21.3281C20.7143 21.5602 20.5214 21.75 20.2857 21.75H18.8571C18.6214 21.75 18.4286 21.5602 18.4286 21.3281V19.9219ZM13.8571 15.4219C13.8571 15.1898 14.05 15 14.2857 15H15.7143C15.95 15 16.1429 15.1898 16.1429 15.4219V16.8281C16.1429 17.0602 15.95 17.25 15.7143 17.25H14.2857C14.05 17.25 13.8571 17.0602 13.8571 16.8281V15.4219ZM13.8571 19.9219C13.8571 19.6898 14.05 19.5 14.2857 19.5H15.7143C15.95 19.5 16.1429 19.6898 16.1429 19.9219V21.3281C16.1429 21.5602 15.95 21.75 15.7143 21.75H14.2857C14.05 21.75 13.8571 21.5602 13.8571 21.3281V19.9219ZM9.28571 15.4219C9.28571 15.1898 9.47857 15 9.71429 15H11.1429C11.3786 15 11.5714 15.1898 11.5714 15.4219V16.8281C11.5714 17.0602 11.3786 17.25 11.1429 17.25H9.71429C9.47857 17.25 9.28571 17.0602 9.28571 16.8281V15.4219ZM9.28571 19.9219C9.28571 19.6898 9.47857 19.5 9.71429 19.5H11.1429C11.3786 19.5 11.5714 19.6898 11.5714 19.9219V21.3281C11.5714 21.5602 11.3786 21.75 11.1429 21.75H9.71429C9.47857 21.75 9.28571 21.5602 9.28571 21.3281V19.9219ZM21.2857 8.25H19.5714V6.5625C19.5714 6.25312 19.3143 6 19 6H17.8571C17.5429 6 17.2857 6.25312 17.2857 6.5625V8.25H12.7143V6.5625C12.7143 6.25312 12.4571 6 12.1429 6H11C10.6857 6 10.4286 6.25312 10.4286 6.5625V8.25H8.71429C7.76786 8.25 7 9.00586 7 9.9375V11.625H23V9.9375C23 9.00586 22.2321 8.25 21.2857 8.25Z" fill="white"/>
</svg>
