<svg width="30" height="30" viewBox="0 0 30 30" fill="none" xmlns="http://www.w3.org/2000/svg">
<circle cx="15" cy="15" r="15" fill="#2F80ED"/>
<path d="M23.6503 8.025C24.3974 7.27758 23.8682 6 22.8118 6H7.18821C6.13175 6 5.60265 7.27758 6.34972 8.025L13.875 15.5498V22.3125H11.9062C11.1296 22.3125 10.5 22.9421 10.5 23.7188C10.5 23.8741 10.6258 24 10.7812 24H19.2188C19.3742 24 19.5 23.8741 19.5 23.7188C19.5 22.9421 18.8704 22.3125 18.0938 22.3125H16.125V15.5498L23.6503 8.025ZM21.6014 7.6875L19.9138 9.375H10.0865L8.399 7.6875H21.6014Z" fill="white"/>
</svg>
